<svg xmlns="http://www.w3.org/2000/svg" version="1.1" xmlns:xlink="http://www.w3.org/1999/xlink" xmlns:svgjs="http://svgjs.com/svgjs" width="100%" height="100%" viewBox="0 0 1000 600"><rect width="1000" height="600" x="0" y="0" fill="222, 184, 135"/><g><rect width="333.3333333333333" height="333.3333333333333" y="286.87847495651243" fill="burlywood" transform="matrix(0.4723107804935648,0,0,0.4723107804935648,0,85.78574116078836)" x="264.65625"/><path d="M443.837487274933 524.8550294928348L442.54859491680327 524.8550294928348Q415.12216450543804 528.5418611219036 385.9872023635287 528.5418611219036L385.9872023635287 528.5418611219036Q378.43369366007073 528.5418611219036 372.28897427828946 528.0922475086024Q366.1442548965082 527.672608136188 360.74889153689537 526.0539991283042Q355.3535281772825 524.4353901204204 354.6940948777743 522.9366780760836Q354.0646358191528 521.4079917908598 354.0646358191528 516.0126284312471L354.0646358191528 516.0126284312471L376.9349816157338 516.0126284312471L376.7251619295267 499.4068989799942L376.7251619295267 492.9324629484588Q376.7251619295267 489.9050646188983 377.144801301941 487.537099588846L377.144801301941 487.537099588846L376.27554831622564 461.6393554627044Q368.7220396127677 460.35046310457466 367.313250291091 459.3613131553123Q365.934435210301 458.4021374469367 365.934435210301 456.7835284390529Q365.934435210301 455.164919431169 367.22332756843076 453.63623314594537L367.22332756843076 453.63623314594537Q368.30240024035334 451.9277014154013 370.0109319708974 450.1891954439705L370.0109319708974 450.1891954439705Q374.7768362718887 445.4532653838659 375.19647564430306 443.7147594124351Q375.6460892576041 442.00622768189106 376.4853680024328 436.28114767252407Q377.3546209881482 430.55606766315714 378.2238739738636 423.6619922592074L378.2238739738636 423.6619922592074L379.9623799452944 410.71312019613663Q380.8016586901231 404.6583235370155 380.5918390039159 403.1596114926786L380.5918390039159 403.1596114926786L380.17219963150154 389.5513061300996L363.11685656694766 390.63037880202216Q358.5907461930502 390.63037880202216 358.5907461930502 385.8944487419176L358.5907461930502 385.8944487419176Q358.380926506843 384.815376069995 361.8279642088179 383.49650947097854L361.8279642088179 383.49650947097854Q367.4331472546379 381.3383641271334 370.0109319708974 381.3383641271334L370.0109319708974 381.3383641271334L374.7768362718887 381.57815805422734L439.7310162734499 378.55075972466676Q449.02303094833866 378.55075972466676 449.02303094833866 383.0768700985642Q449.02303094833866 387.60298047246164 442.7584146030104 388.4722334581771L442.7584146030104 388.4722334581771Q431.9676878837848 389.9709455025139 430.01936222614677 390.8401984882293L430.01936222614677 390.8401984882293Q429.1501092404314 393.20816351828165 428.73046986801705 394.5270301172981L428.73046986801705 394.5270301172981Q426.7821442103791 399.4727798636099 426.36250483796476 403.579250865093L426.36250483796476 403.579250865093L425.49325185224933 412.6314716128878Q424.83381855274115 417.60719560008636 424.29428221677983 423.12245592324615Q423.7547458808186 428.6077420055192 423.21520954485726 433.46356902917074Q422.675673208896 438.31939605282224 422.3459565591419 441.7664337547971Q422.04621415027447 445.24344569765873 421.3867808507663 448.6904833996336L421.3867808507663 448.6904833996336Q420.0978884926365 455.5845588035833 420.0978884926365 476.0869395701121L420.0978884926365 476.0869395701121L420.3077081788437 501.9846836962537Q420.3077081788437 507.38004705586656 421.71649750052035 510.527342348974Q423.12528682219704 513.6446634011947 429.8095425399396 513.6446634011947L429.8095425399396 513.6446634011947L445.54601900547704 514.7237360731174Q450.7315626788827 514.7237360731174 453.3393216360289 513.6446634011947L453.3393216360289 513.6446634011947L458.4948910685479 511.06687868493526Q461.10265002569406 509.98780601301274 463.6804347419535 508.4591197277891L463.6804347419535 508.4591197277891Q470.8143040729972 504.59244265339987 472.5228358035412 502.85393668196906L472.5228358035412 502.85393668196906L478.7874521488695 496.799140022848Q482.6841034641454 492.27302964895057 487.42003352424996 487.32727990263885L487.42003352424996 487.32727990263885L502.10741155875155 471.5608291962147Q508.581847590287 473.928794226267 508.581847590287 484.9293406316998L508.581847590287 484.9293406316998Q508.581847590287 493.142282634666 505.6743462242734 503.7231896676845Q502.7368706173731 514.304096700703 500.81851920062184 518.3805934612993L500.81851920062184 518.3805934612993Q496.2624345858377 527.8824278223954 491.3166848395259 527.8824278223954L491.3166848395259 527.8824278223954Q481.15541717892177 527.8824278223954 471.35384040895843 526.2638188145115Q461.5222893981084 524.6452098066276 455.9171063522884 524.6452098066276L455.9171063522884 524.6452098066276L449.02303094833866 524.6452098066276L443.837487274933 524.8550294928348Z " fill="white" transform="matrix(0.4723107804935648,0,0,0.4723107804935648,0,85.78574116078836)"/><path d="M766.4568273928492 519.3364353746481L765.2345311459026 519.3364353746481Q739.2252040306462 522.8327711507975 711.5956237508326 522.8327711507975L711.5956237508326 522.8327711507975Q704.4323992338441 522.8327711507975 698.605172940262 522.4063887390719Q692.7779466466799 522.0084318214615 687.6613577059737 520.4734551392496Q682.5447687652675 518.9384784570377 681.9194078947368 517.5172037512859Q681.3224725183211 516.0675035514192 681.3224725183211 510.950914610713L681.3224725183211 510.950914610713L703.0111245280923 510.950914610713L702.8121460692871 495.203190870984L702.8121460692871 489.0632841421365Q702.8121460692871 486.19230923651804 703.2101029868975 483.9466952014303L703.2101029868975 483.9466952014303L702.3857636575615 459.3870682860406Q695.2225391405728 458.1647720390941 693.8865409171663 457.226730733298Q692.5789681878746 456.3171149216169 692.5789681878746 454.782138239405Q692.5789681878746 453.2471615571931 693.8012644348212 451.7974613573264L693.8012644348212 451.7974613573264Q694.8245822229624 450.17720819276946 696.4448353875193 448.52852953409746L696.4448353875193 448.52852953409746Q700.9644889518098 444.037301463922 701.3624458694203 442.38862280525Q701.7888282811458 440.76836964069304 702.5847421163668 435.3391002647215Q703.4090814457028 429.9098308887499 704.2334207750388 423.371967242292L704.2334207750388 423.371967242292L705.8820994337108 411.0921537845971Q706.6780132689317 405.3502039733601 706.4790348101264 403.92892926760845L706.4790348101264 403.92892926760845L706.0810778925161 391.0237549393828L689.9069717410614 392.04707272752404Q685.6147221296912 392.04707272752404 685.6147221296912 387.5558446573486L685.6147221296912 387.5558446573486Q685.4157436708861 386.5325268692074 688.6846754941149 385.28180512814583L688.6846754941149 385.28180512814583Q694.0002428936264 383.2351695518634 696.4448353875193 383.2351695518634L696.4448353875193 383.2351695518634L700.9644889518098 383.4625735047837L762.5625346990894 380.59159859916514Q771.3744378747501 380.59159859916514 771.3744378747501 384.8838482105354Q771.3744378747501 389.17609782190556 765.4335096047079 390.00043715124156L765.4335096047079 390.00043715124156Q755.2003317232954 391.4217118569933 753.3526746058183 392.2460511863293L753.3526746058183 392.2460511863293Q752.5283352764823 394.491665221417 752.1303783588718 395.7423869624785L752.1303783588718 395.7423869624785Q750.2827212413945 400.4325934914592 749.8847643237841 404.32688618521894L749.8847643237841 404.32688618521894L749.0604249944481 412.9113854079593Q748.4350641239173 417.630017431055 747.9234052298466 422.8603083482214Q747.4117463357761 428.0621737712727 746.9000874417054 432.66710381790824Q746.3884285476348 437.2720338645438 746.0757481123694 440.54096568777277Q745.7914931712191 443.83832300511676 745.1661323006883 447.10725482834573L745.1661323006883 447.10725482834573Q743.9438360537418 453.6451184748036 743.9438360537418 473.0881564494872L743.9438360537418 473.0881564494872L744.1428145125471 497.64778336487694Q744.1428145125471 502.7643723055831 745.4788127359536 505.74904918766174Q746.8148109593603 508.7053005756253 753.1536961470131 508.7053005756253L753.1536961470131 508.7053005756253L768.0770805574061 509.72861836376654Q772.9946910393071 509.72861836376654 775.4677090273151 508.7053005756253L775.4677090273151 508.7053005756253L780.356894015101 506.2607080817324Q782.829912003109 505.2373902935911 785.274504497002 503.7876900937244L785.274504497002 503.7876900937244Q792.0397720963801 500.12080135288494 793.6600252609371 498.47212269421294L793.6600252609371 498.47212269421294L799.6009535309793 492.730172882976Q803.2962677659336 488.43792327160577 807.7874958361092 483.7477167426251L807.7874958361092 483.7477167426251L821.7159879524761 468.795906838117Q827.8558946813234 471.0415208732047 827.8558946813234 481.4736772134223L827.8558946813234 481.4736772134223Q827.8558946813234 489.26226260094177 825.0986217521652 499.29646202354894Q822.3129233288917 509.33066144615606 820.4936917055295 513.1965286458008L820.4936917055295 513.1965286458008Q816.1730166000443 522.2074102802667 811.4828100710636 522.2074102802667L811.4828100710636 522.2074102802667Q801.846567566067 522.2074102802667 792.5514309904506 520.6724335980548Q783.2278689207194 519.1374569158429 777.9123015212081 519.1374569158429L777.9123015212081 519.1374569158429L771.3744378747501 519.1374569158429L766.4568273928492 519.3364353746481ZM841.9833652564955 502.1674369291674L841.9833652564955 502.1674369291674Q837.8900941039306 496.2265086591252 837.2647332334 489.66021951855225Q836.6393723628692 483.1223558720943 836.6393723628692 474.53785664935396Q836.6393723628692 465.9249319324985 842.5803006329113 457.85209160382874Q848.5212289029535 449.75082578104394 857.7310889962246 444.037301463922L857.7310889962246 444.037301463922Q876.975148512103 431.7574880062271 899.0617574394848 431.7574880062271L899.0617574394848 431.7574880062271Q918.1068384965577 431.7574880062271 931.2109912835886 450.7741435691851L931.2109912835886 450.7741435691851Q936.9245156007105 458.96068587431506 939.9091924827892 468.6822048616568Q942.8654438707529 478.4037238489986 942.8654438707529 488.43792327160577Q942.8654438707529 498.47212269421294 936.7255371419053 507.8809612462893L936.7255371419053 507.8809612462893Q928.5389948367754 520.5871571157097 913.3882064734621 524.254045856549L913.3882064734621 524.254045856549Q908.4990214856762 525.4763421034957 900.8241380746169 526.613361868097Q893.1492546635575 527.7503816326985 891.6995544636909 527.7503816326985L891.6995544636909 527.7503816326985Q876.5487661003774 527.7503816326985 864.0699741838773 522.2074102802667Q851.5911822673772 516.6928644219499 841.9833652564955 502.1674369291674ZM875.9518307239616 481.4736772134223L875.9518307239616 481.4736772134223Q875.9518307239616 486.19230923651804 876.4634896180323 491.70685509483474Q876.975148512103 497.24982644726646 878.3964232178546 502.3664153879726L878.3964232178546 502.3664153879726Q881.892758994004 514.8452073044728 888.4306226404619 514.8452073044728L888.4306226404619 514.8452073044728Q895.5938471574505 514.8452073044728 899.4881398512102 509.9275968225718Q903.38243254497 505.0099863406708 905.2016641683322 498.07416577660246L905.2016641683322 498.07416577660246Q907.6746821563402 488.636901730411 907.6746821563402 468.59692837931175L907.6746821563402 468.59692837931175Q907.6746821563402 459.9840036624563 905.6280465800576 453.6451184748036L905.6280465800576 453.6451184748036Q900.7104360981568 443.01398367578076 898.2658436042639 441.7916874288343L898.2658436042639 441.7916874288343Q898.0384396513434 441.7916874288343 897.8394611925382 441.7916874288343L897.8394611925382 441.7916874288343Q885.3606692760382 441.7916874288343 880.0451018765266 456.3171149216169L880.0451018765266 456.3171149216169Q875.9518307239616 466.94824972063975 875.9518307239616 481.4736772134223ZM1004.889872029758 520.5871571157097L996.9023081834332 520.5871571157097L966.2027745391961 520.9851140333201Q959.6649108927381 520.5871571157097 957.1918929047301 520.075498221639Q954.7473004108372 519.5638393275685 954.8325768931822 516.1812055278795Q954.9462788696424 512.7985717281904 957.1918929047301 512.0879343753145Q959.4375069398179 511.37729702243854 962.2232053630912 511.26359504597843Q964.9804782922495 511.14989306951827 967.2260923273373 510.7519361519078Q969.471706362425 510.3539792342973 969.6706848212302 507.8809612462893L969.6706848212302 507.8809612462893L968.647367033089 498.6711011530181Q968.647367033089 497.4488049060717 968.8747709860093 492.4459179418256Q969.0737494448144 487.4146054834645 969.2727279036196 481.2746987546171L969.2727279036196 481.2746987546171Q969.8980887741504 465.72595347369327 970.4950241505662 462.0306392387388L970.4950241505662 462.0306392387388L969.6706848212302 458.7617074155098L968.647367033089 455.0948186746704Q967.4250707861424 451.00154752210545 966.0037960803909 451.00154752210545L966.0037960803909 451.00154752210545L954.3209179991115 450.3761866515747Q953.2976002109704 450.3761866515747 952.5869628580945 448.3295510752922Q951.8763255052186 446.28291549900973 951.8763255052186 445.657554628479L951.8763255052186 445.657554628479Q951.8763255052186 443.6109190521965 953.2976002109704 443.41194059339125L953.2976002109704 443.41194059339125L976.6349308794136 439.5176478996315Q979.7048842438373 438.9207125232158 983.2012200199865 437.07305540573856L983.2012200199865 437.07305540573856Q989.7390836664445 433.6051451237044 992.6953350544081 433.6051451237044Q995.6800119364868 433.6051451237044 996.9023081834332 434.6284629118456Q998.1246044303796 435.65178069998683 998.7499653009104 437.2720338645438L998.7499653009104 437.2720338645438Q999.5743046302464 439.5176478996315 999.5743046302464 444.4352583815325L999.5743046302464 444.4352583815325Q1004.2645111592271 442.8150052169755 1009.1821216411281 440.76836964069304L1009.1821216411281 440.76836964069304Q1014.0997321230291 438.72173406441055 1018.5909601932044 437.07305540573856L1018.5909601932044 437.07305540573856Q1029.0231165334221 432.97978425317365 1032.9174092271817 432.97978425317365L1032.9174092271817 432.97978425317365Q1033.116387685987 432.97978425317365 1033.116387685987 432.97978425317365L1033.116387685987 432.97978425317365Q1037.0106803797469 433.17876271197883 1039.5689748501 434.91271785299597Q1042.127269320453 436.67509848812807 1044.685563790806 439.00598900556093Q1047.2438582611592 441.36530501710877 1049.4041958139019 443.6109190521965Q1051.5361078725293 445.88495858139925 1052.9858080723961 447.10725482834573L1052.9858080723961 447.10725482834573Q1070.3822104707972 433.17876271197883 1083.2589593049079 433.17876271197883L1083.2589593049079 433.17876271197883Q1099.035108538752 433.3777411707841 1106.596289973351 441.564283475914L1106.596289973351 441.564283475914Q1109.86522179658 445.2595977108685 1109.86522179658 451.00154752210545L1109.86522179658 451.00154752210545L1108.6429255496334 487.61358394226977L1108.6429255496334 498.6711011530181Q1108.6429255496334 507.0566219169533 1112.7361967021984 508.07993970509455L1112.7361967021984 508.07993970509455Q1117.6538071840994 509.33066144615606 1118.989805407506 510.3539792342973Q1120.3258036309126 511.37729702243854 1120.3258036309126 514.333548410402Q1120.3258036309126 517.2897997983657 1116.9431698312235 518.0288626453566Q1113.5605360315344 518.7394999982325 1110.1779022318453 518.7394999982325Q1106.7952684321563 518.7394999982325 1105.2602917499444 518.9384784570377Q1103.7253150677325 519.1374569158429 1102.503018820786 519.3364353746481L1102.503018820786 519.3364353746481L1100.0584263268931 519.7628177863737Q1098.8361300799465 519.9617962451789 1096.9884729624694 519.9617962451789L1096.9884729624694 519.9617962451789Q1078.1423703642015 519.9617962451789 1078.1423703642015 513.423932598721L1078.1423703642015 513.423932598721Q1078.1423703642015 500.71773672930067 1080.1037294581388 487.84098789519004Q1082.0366630579613 474.9358135669644 1082.0366630579613 462.0306392387388L1082.0366630579613 462.0306392387388Q1082.0366630579613 456.5160933804221 1080.5016863757494 453.04818309838794Q1078.9667096935375 449.5518473222387 1073.6511422940262 449.1538904046282L1073.6511422940262 449.1538904046282Q1068.3355748945148 449.5518473222387 1064.2423037419499 452.8207791454676L1064.2423037419499 452.8207791454676Q1056.254739895625 458.96068587431506 1056.254739895625 463.48033943860554L1056.254739895625 463.48033943860554Q1057.903418554297 468.17054596758624 1057.9886950366422 475.04951554342455Q1058.1023970131023 481.9000596251479 1058.1023970131023 486.3912876953233Q1058.1023970131023 490.91094125961376 1057.676014601377 496.02753020032L1057.676014601377 496.02753020032Q1057.079079224961 500.91671518810585 1056.254739895625 505.8343256700068L1056.254739895625 505.8343256700068Q1054.0091258605373 518.3131175865069 1049.2904938374415 518.7394999982325L1049.2904938374415 518.7394999982325Q1048.2671760493004 518.9384784570377 1044.8845422496113 519.1374569158429Q1041.5303339440372 519.3364353746481 1039.9953572618253 519.4501373511084Q1038.4603805796135 519.5638393275685 1036.9254038974016 519.4501373511084Q1035.39042721519 519.3364353746481 1033.3437916389073 519.0521804334978Q1031.297156062625 518.7394999982325 1029.8474558627581 517.9151606688965L1029.8474558627581 517.9151606688965Q1026.7775024983343 516.0675035514192 1026.7775024983343 511.37729702243854L1026.7775024983343 511.37729702243854Q1026.7775024983343 500.71773672930067 1028.2272026982012 491.109919718419Q1029.6484774039527 481.4736772134223 1029.6484774039527 471.6668817437355Q1029.6484774039527 461.83166077993354 1025.8678866866533 456.1181364628116Q1022.0872959693538 450.3761866515747 1017.368663946258 450.3761866515747L1017.368663946258 450.3761866515747Q1009.1821216411281 450.3761866515747 1003.4401718298911 457.7383896273686L1003.4401718298911 457.7383896273686Q998.5509868421052 464.30467876794154 998.323582889185 470.0182030850635L998.323582889185 470.0182030850635L996.5043512658228 509.9275968225718Q997.7266475127692 510.950914610713 999.5743046302464 511.14989306951827Q1001.3935362536085 511.37729702243854 1003.241193371086 511.6615519635889Q1005.0888504885631 511.97423239885427 1006.4248487119696 512.7985717281904Q1007.7608469353763 513.6229110575263 1007.7608469353763 516.1812055278795Q1007.7608469353763 518.7394999982325 1004.889872029758 520.5871571157097L1004.889872029758 520.5871571157097ZM1194.004684377082 455.0948186746704L1194.004684377082 455.0948186746704Q1194.004684377082 438.9207125232158 1179.6782353431045 438.9207125232158L1179.6782353431045 438.9207125232158Q1173.5383286142571 438.9207125232158 1171.0653106262491 443.6109190521965L1171.0653106262491 443.6109190521965Q1169.8430143793028 446.28291549900973 1169.7293124028424 449.46657083989356Q1169.6440359204973 452.6218006866624 1170.5536517321784 453.4461400159984Q1171.4916930379745 454.2704793453344 1171.4916930379745 456.3171149216169L1171.4916930379745 456.3171149216169Q1171.4916930379745 459.9840036624563 1167.1710179324893 461.2347254035178L1167.1710179324893 461.2347254035178Q1164.5274469797912 462.0306392387388 1159.410858039085 462.0306392387388L1159.410858039085 462.0306392387388Q1155.7155438041304 462.0306392387388 1150.200997945814 463.878296356216Q1144.6580265933821 465.72595347369327 1143.8621127581612 465.72595347369327L1143.8621127581612 465.72595347369327Q1142.014455640684 465.72595347369327 1141.0764143348879 463.48033943860554Q1140.1667985232068 461.2347254035178 1140.1667985232068 459.18808982723533L1140.1667985232068 459.18808982723533Q1140.1667985232068 455.4927755922809 1144.9707070286474 447.6189137224163Q1149.7746155340883 439.7450518525518 1153.2709513102375 437.07305540573856L1153.2709513102375 437.07305540573856Q1159.6098364978902 432.35442338264284 1164.9254038974016 429.3981719946793Q1170.2409712969131 426.4419206067157 1175.98292110815 426.4419206067157L1175.98292110815 426.4419206067157Q1205.4601585054409 426.4419206067157 1214.0446577281812 442.18964434644477L1214.0446577281812 442.18964434644477Q1218.9622682100821 451.2005259809107 1218.9622682100821 463.878296356216L1218.9622682100821 463.878296356216Q1218.9622682100821 469.42126770864775 1217.5409935043303 475.1347920257697Q1216.0912933044635 480.8767418370066 1216.0912933044635 486.19230923651804L1216.0912933044635 486.19230923651804Q1216.0912933044635 494.77680845925846 1219.587629080613 502.1674369291674L1219.587629080613 502.1674369291674Q1224.0788571507883 508.50632211682006 1227.3477889740172 509.5296399049613L1227.3477889740172 509.5296399049613Q1228.5700852209636 509.5296399049613 1229.7071049855651 508.7053005756253Q1230.8441247501664 507.8809612462893 1231.8674425383076 507.8809612462893L1231.8674425383076 507.8809612462893Q1236.159692149678 507.8809612462893 1236.159692149678 512.0879343753145Q1236.159692149678 516.2664820102245 1232.4643779147234 519.3364353746481L1232.4643779147234 519.3364353746481Q1225.1021749389295 525.4763421034957 1218.3369073395513 525.4763421034957Q1211.6000652342882 525.4763421034957 1208.7290903286696 524.6804282682747Q1205.8581154230512 523.8560889389387 1203.6125013879634 522.4063887390719Q1201.366887352876 520.9851140333201 1199.7182086942037 519.3364353746481L1199.7182086942037 519.3364353746481L1196.4492768709747 516.2664820102245L1193.3793235065511 513.1965286458008Q1192.1570272596045 511.775253940049 1191.9580488007994 511.775253940049L1191.9580488007994 511.775253940049Q1178.0295566844325 528.5462954679194 1156.7388615922716 528.5462954679194L1156.7388615922716 528.5462954679194Q1144.6580265933821 528.5462954679194 1136.983143182323 520.1607747039841Q1129.3082597712635 511.775253940049 1129.3082597712635 504.4130509642551L1129.3082597712635 504.4130509642551Q1129.3082597712635 490.48455884788825 1143.2367518876304 481.9000596251479L1143.2367518876304 481.9000596251479Q1157.5632009216076 473.28713490829244 1186.6140559071728 469.1938637557275L1186.6140559071728 469.1938637557275Q1189.4850308127914 468.99488529692223 1191.1337094714634 467.77258904997575L1191.1337094714634 467.77258904997575Q1194.004684377082 465.72595347369327 1194.004684377082 455.0948186746704ZM1165.5507647679324 487.61358394226977L1165.5507647679324 487.61358394226977Q1163.3051507328446 491.30889817722425 1163.3051507328446 494.5778300004532L1163.3051507328446 494.5778300004532Q1163.3051507328446 502.3664153879726 1164.7264254385964 508.90427903443054Q1166.1477001443482 515.4705681750036 1169.6440359204973 515.8685250926139L1169.6440359204973 515.8685250926139Q1174.7606248612035 515.8685250926139 1178.427513602043 512.9975501869956L1178.427513602043 512.9975501869956Q1184.993802742616 507.8809612462893 1185.3917596602264 502.7643723055831L1185.3917596602264 502.7643723055831L1187.8647776482344 477.1814276020521Q1171.8896499555851 477.1814276020521 1165.5507647679324 487.61358394226977ZM1292.6411489562513 520.5871571157097L1284.6535851099266 520.5871571157097L1253.9540514656894 520.9851140333201Q1247.4161878192315 520.5871571157097 1244.9431698312235 520.075498221639Q1242.4985773373305 519.5638393275685 1242.6122793137906 516.1812055278795Q1242.6975557961357 512.7985717281904 1244.9431698312235 512.0879343753145Q1247.2172093604263 511.37729702243854 1249.9744822895846 511.26359504597843Q1252.731755218743 511.14989306951827 1254.9773692538306 510.7519361519078Q1257.2229832889184 510.3539792342973 1257.4503872418386 507.8809612462893L1257.4503872418386 507.8809612462893L1256.4270694536974 498.6711011530181Q1256.4270694536974 497.4488049060717 1256.6260479125028 492.4459179418256Q1256.825026371308 487.4146054834645 1257.0240048301132 481.2746987546171L1257.0240048301132 481.2746987546171Q1257.649365700644 465.72595347369327 1258.2463010770596 462.0306392387388L1258.2463010770596 462.0306392387388L1257.4503872418386 458.7617074155098L1256.4270694536974 455.0948186746704Q1255.1763477126358 451.00154752210545 1253.7550730068842 451.00154752210545L1253.7550730068842 451.00154752210545L1242.1006204197201 450.3761866515747Q1241.077302631579 450.3761866515747 1240.338239784588 448.3295510752922Q1239.6276024317121 446.28291549900973 1239.6276024317121 445.657554628479L1239.6276024317121 445.657554628479Q1239.6276024317121 443.6109190521965 1241.077302631579 443.41194059339125L1241.077302631579 443.41194059339125L1264.3862078059071 439.5176478996315Q1267.456161170331 438.9207125232158 1270.95249694648 437.07305540573856L1270.95249694648 437.07305540573856Q1277.4903605929378 433.6051451237044 1280.4750374750165 433.6051451237044Q1283.4312888629802 433.6051451237044 1284.6535851099266 434.6284629118456Q1285.8758813568732 435.65178069998683 1286.501242227404 437.2720338645438L1286.501242227404 437.2720338645438Q1287.3255815567397 439.5176478996315 1287.3255815567397 444.4352583815325L1287.3255815567397 444.4352583815325Q1292.0157880857205 442.8150052169755 1296.9333985676217 440.76836964069304L1296.9333985676217 440.76836964069304Q1301.8510090495224 438.72173406441055 1306.342237119698 437.07305540573856L1306.342237119698 437.07305540573856Q1316.8028189540305 432.97978425317365 1320.6686861536755 432.97978425317365L1320.6686861536755 432.97978425317365Q1320.8960901065957 432.97978425317365 1320.8960901065957 432.97978425317365L1320.8960901065957 432.97978425317365Q1324.7619573062402 433.17876271197883 1327.3202517765933 434.91271785299597Q1329.8785462469464 436.67509848812807 1332.4368407172994 439.00598900556093Q1334.9951351876525 441.36530501710877 1337.1554727403952 443.6109190521965Q1339.315810293138 445.88495858139925 1340.7370849988897 447.10725482834573L1340.7370849988897 447.10725482834573Q1358.1334873972905 433.17876271197883 1371.0386617255162 433.17876271197883L1371.0386617255162 433.17876271197883Q1386.7863854652453 433.3777411707841 1394.3475668998444 441.564283475914L1394.3475668998444 441.564283475914Q1397.6449242171884 445.2595977108685 1397.6449242171884 451.00154752210545L1397.6449242171884 451.00154752210545L1396.3942024761268 487.61358394226977L1396.3942024761268 498.6711011530181Q1396.3942024761268 507.0566219169533 1400.487473628692 508.07993970509455L1400.487473628692 508.07993970509455Q1405.4050841105927 509.33066144615606 1406.7410823339997 510.3539792342973Q1408.0770805574061 511.37729702243854 1408.0770805574061 514.333548410402Q1408.0770805574061 517.2897997983657 1404.6944467577168 518.0288626453566Q1401.311812958028 518.7394999982325 1397.9291791583387 518.7394999982325Q1394.5749708527646 518.7394999982325 1393.039994170553 518.9384784570377Q1391.505017488341 519.1374569158429 1390.2542957472797 519.3364353746481L1390.2542957472797 519.3364353746481L1387.8097032533865 519.7628177863737Q1386.5874070064401 519.9617962451789 1384.7397498889627 519.9617962451789L1384.7397498889627 519.9617962451789Q1365.92207278481 519.9617962451789 1365.92207278481 513.423932598721L1365.92207278481 513.423932598721Q1365.92207278481 500.71773672930067 1367.8550063846324 487.84098789519004Q1369.7879399844546 474.9358135669644 1369.7879399844546 462.0306392387388L1369.7879399844546 462.0306392387388Q1369.7879399844546 456.5160933804221 1368.252963302243 453.04818309838794Q1366.717986620031 449.5518473222387 1361.4024192205197 449.1538904046282L1361.4024192205197 449.1538904046282Q1356.0868518210082 449.5518473222387 1351.9935806684432 452.8207791454676L1351.9935806684432 452.8207791454676Q1344.0060168221185 458.96068587431506 1344.0060168221185 463.48033943860554L1344.0060168221185 463.48033943860554Q1345.6546954807905 468.17054596758624 1345.7399719631358 475.04951554342455Q1345.8536739395959 481.9000596251479 1345.8536739395959 486.3912876953233Q1345.8536739395959 490.91094125961376 1345.4557170219855 496.02753020032L1345.4557170219855 496.02753020032Q1344.8303561514547 500.91671518810585 1344.0060168221185 505.8343256700068L1344.0060168221185 505.8343256700068Q1341.7604027870307 518.3131175865069 1337.0417707639353 518.7394999982325L1337.0417707639353 518.7394999982325Q1336.018452975794 518.9384784570377 1332.66424467022 519.1374569158429Q1329.2816108705306 519.3364353746481 1327.7466341883187 519.4501373511084Q1326.211657506107 519.5638393275685 1324.6766808238951 519.4501373511084Q1323.1417041416832 519.3364353746481 1321.0950685654007 519.0521804334978Q1319.0484329891183 518.7394999982325 1317.5987327892517 517.9151606688965L1317.5987327892517 517.9151606688965Q1314.528779424828 516.0675035514192 1314.528779424828 511.37729702243854L1314.528779424828 511.37729702243854Q1314.528779424828 500.71773672930067 1315.9784796246945 491.109919718419Q1317.3997543304463 481.4736772134223 1317.3997543304463 471.6668817437355Q1317.3997543304463 461.83166077993354 1313.6191636131466 456.1181364628116Q1309.8385728958472 450.3761866515747 1305.1199408727516 450.3761866515747L1305.1199408727516 450.3761866515747Q1296.9333985676217 450.3761866515747 1291.2198742504997 457.7383896273686L1291.2198742504997 457.7383896273686Q1286.3022637685986 464.30467876794154 1286.1032853097934 470.0182030850635L1286.1032853097934 470.0182030850635L1284.2556281923162 509.9275968225718Q1285.4779244392626 510.950914610713 1287.3255815567397 511.14989306951827Q1289.1732386742171 511.37729702243854 1290.9924702975793 511.6615519635889Q1292.8401274150565 511.97423239885427 1294.1761256384632 512.7985717281904Q1295.51212386187 513.6229110575263 1295.51212386187 516.1812055278795Q1295.51212386187 518.7394999982325 1292.6411489562513 520.5871571157097L1292.6411489562513 520.5871571157097ZM1481.7559613035753 455.0948186746704L1481.7559613035753 455.0948186746704Q1481.7559613035753 438.9207125232158 1467.429512269598 438.9207125232158L1467.429512269598 438.9207125232158Q1461.2896055407505 438.9207125232158 1458.8165875527425 443.6109190521965L1458.8165875527425 443.6109190521965Q1457.594291305796 446.28291549900973 1457.509014823451 449.46657083989356Q1457.395312846991 452.6218006866624 1458.304928658672 453.4461400159984Q1459.242969964468 454.2704793453344 1459.242969964468 456.3171149216169L1459.242969964468 456.3171149216169Q1459.242969964468 459.9840036624563 1454.950720353098 461.2347254035178L1454.950720353098 461.2347254035178Q1452.2787239062845 462.0306392387388 1447.1621349655784 462.0306392387388L1447.1621349655784 462.0306392387388Q1443.466820730624 462.0306392387388 1437.952274872307 463.878296356216Q1432.4377290139905 465.72595347369327 1431.6133896846545 465.72595347369327L1431.6133896846545 465.72595347369327Q1429.7657325671773 465.72595347369327 1428.8561167554963 463.48033943860554Q1427.9180754497002 461.2347254035178 1427.9180754497002 459.18808982723533L1427.9180754497002 459.18808982723533Q1427.9180754497002 455.4927755922809 1432.7219839551408 447.6189137224163Q1437.5543179546967 439.7450518525518 1441.022228236731 437.07305540573856L1441.022228236731 437.07305540573856Q1447.3611134243838 432.35442338264284 1452.676680823895 429.3981719946793Q1458.0206737175217 426.4419206067157 1463.7341980346437 426.4419206067157L1463.7341980346437 426.4419206067157Q1493.2114354319342 426.4419206067157 1501.7959346546745 442.18964434644477L1501.7959346546745 442.18964434644477Q1506.7135451365755 451.2005259809107 1506.7135451365755 463.878296356216L1506.7135451365755 463.878296356216Q1506.7135451365755 469.42126770864775 1505.292270430824 475.1347920257697Q1503.8425702309569 480.8767418370066 1503.8425702309569 486.19230923651804L1503.8425702309569 486.19230923651804Q1503.8425702309569 494.77680845925846 1507.3389060071063 502.1674369291674L1507.3389060071063 502.1674369291674Q1511.8301340772816 508.50632211682006 1515.0990659005106 509.5296399049613L1515.0990659005106 509.5296399049613Q1516.3497876415722 509.5296399049613 1517.4583819120585 508.7053005756253Q1518.59540167666 507.8809612462893 1519.618719464801 507.8809612462893L1519.618719464801 507.8809612462893Q1523.9109690761716 507.8809612462893 1523.9109690761716 512.0879343753145Q1523.9109690761716 516.2664820102245 1520.2156548412167 519.3364353746481L1520.2156548412167 519.3364353746481Q1512.853451865423 525.4763421034957 1506.11660976016 525.4763421034957Q1499.3513421607818 525.4763421034957 1496.4803672551632 524.6804282682747Q1493.6093923495446 523.8560889389387 1491.3637783144568 522.4063887390719Q1489.118164279369 520.9851140333201 1487.4694856206972 519.3364353746481L1487.4694856206972 519.3364353746481L1484.2005537974683 516.2664820102245L1481.1306004330445 513.1965286458008Q1479.9083041860981 511.775253940049 1479.7093257272927 511.775253940049L1479.7093257272927 511.775253940049Q1465.780833610926 528.5462954679194 1444.4901385187652 528.5462954679194L1444.4901385187652 528.5462954679194Q1432.4377290139905 528.5462954679194 1424.7628456029313 520.1607747039841Q1417.087962191872 511.775253940049 1417.087962191872 504.4130509642551L1417.087962191872 504.4130509642551Q1417.087962191872 490.48455884788825 1430.988028814124 481.9000596251479L1430.988028814124 481.9000596251479Q1445.3144778481014 473.28713490829244 1474.3937583277816 469.1938637557275L1474.3937583277816 469.1938637557275Q1477.236307739285 468.99488529692223 1478.8849863979567 467.77258904997575L1478.8849863979567 467.77258904997575Q1481.7559613035753 465.72595347369327 1481.7559613035753 455.0948186746704ZM1453.302041694426 487.61358394226977L1453.302041694426 487.61358394226977Q1451.0564276593382 491.30889817722425 1451.0564276593382 494.5778300004532L1451.0564276593382 494.5778300004532Q1451.0564276593382 502.3664153879726 1452.47770236509 508.90427903443054Q1453.9274025649565 515.4705681750036 1457.395312846991 515.8685250926139L1457.395312846991 515.8685250926139Q1462.511901787697 515.8685250926139 1466.2072160226514 512.9975501869956L1466.2072160226514 512.9975501869956Q1472.7450796691094 507.8809612462893 1473.14303658672 502.7643723055831L1473.14303658672 502.7643723055831L1475.616054574728 477.1814276020521Q1459.6409268820787 477.1814276020521 1453.302041694426 487.61358394226977ZM1552.3648886853207 423.57094570109723L1552.3648886853207 423.57094570109723L1551.1425924383743 411.88806761981806L1550.915188485454 411.88806761981806Q1549.891870697313 411.88806761981806 1543.354007050855 413.13878936087957L1543.354007050855 413.13878936087957Q1541.1083930157672 413.13878936087957 1539.0617574394848 411.4901107022076Q1537.0151218632022 409.8414320435356 1537.0151218632022 407.2831375731825Q1537.0151218632022 404.7248431028294 1538.9480554630245 403.18986642061753Q1540.909414556962 401.6548897384057 1543.9793679213858 400.63157195026446L1543.9793679213858 400.63157195026446Q1547.44727820342 399.409275703318 1558.9027523317786 397.789022538761L1558.9027523317786 397.789022538761L1562.598066566733 397.98800099756625Q1565.8669983899622 397.56161858584073 1569.1359302131912 395.7423869624785L1569.1359302131912 395.7423869624785L1575.2758369420385 392.4450296451345Q1581.8421260826115 388.77814090429507 1586.2196521763267 388.77814090429507Q1590.6256037641572 388.77814090429507 1591.336241117033 391.13745691584296Q1592.075303964024 393.46834743327577 1592.075303964024 396.76570475061976L1592.075303964024 396.76570475061976L1591.6489215522984 399.0113187857075Q1589.4033075172106 412.5134284903489 1589.4033075172106 417.00465656052427Q1589.4033075172106 421.52431012481475 1589.4033075172106 423.9689026187077L1589.4033075172106 423.9689026187077L1589.8012644348212 428.8865131006087Q1589.8012644348212 431.3311055945016 1589.9149664112815 433.3777411707841Q1590.0286683877414 435.42437674706656 1590.0286683877414 436.24871607640256L1590.0286683877414 436.24871607640256Q1594.7188749167221 436.24871607640256 1599.2385284810125 435.42437674706656Q1603.729756551188 434.6284629118456 1608.7326435154341 434.6284629118456Q1613.7639559737952 434.6284629118456 1613.7639559737952 438.72173406441055L1613.7639559737952 438.72173406441055Q1613.7639559737952 441.36530501710877 1612.5416597268486 442.8150052169755L1612.5416597268486 442.8150052169755Q1606.7997099156119 442.8150052169755 1598.613167610482 443.83832300511676Q1590.426625305352 444.861640793258 1589.602285976016 445.06061925206325L1589.602285976016 445.06061925206325Q1587.982032811459 446.0839370402045 1586.333354152787 456.1181364628116Q1584.684675494115 466.12391039130375 1584.59939901177 469.3075657321876Q1584.4856970353098 472.4912210730715 1584.0877401176992 475.5611744374952Q1583.6613577059738 478.6311278019189 1583.064422329558 481.9000596251479L1583.064422329558 481.9000596251479Q1581.6147221296912 489.461241059747 1581.6147221296912 498.2731442354077L1581.6147221296912 498.2731442354077Q1581.6147221296912 502.3664153879726 1584.684675494115 505.8343256700068Q1587.7546288585386 509.33066144615606 1592.075303964024 509.33066144615606L1592.075303964024 509.33066144615606L1599.8354638574283 508.90427903443054Q1602.706438763047 508.90427903443054 1605.0657547745946 509.72861836376654Q1607.4250707861424 510.55295769310254 1607.4250707861424 513.6229110575263L1607.4250707861424 513.6229110575263Q1607.4250707861424 513.8218895163316 1607.1976668332222 514.0208679751368L1607.1976668332222 514.0208679751368L1607.1976668332222 514.2198464339419Q1600.6598031867643 523.2307280684079 1575.2758369420385 523.2307280684079L1575.2758369420385 523.2307280684079Q1558.7037738729737 523.2307280684079 1551.3415708971797 511.5762754812438L1551.3415708971797 511.5762754812438Q1545.798599544748 502.9633507643884 1545.798599544748 488.0399663539953L1545.798599544748 488.0399663539953Q1545.798599544748 485.5669483659873 1548.6695744503663 455.4927755922809L1548.6695744503663 455.4927755922809L1548.271617532756 446.481893957815L1523.0866297468356 446.481893957815Q1521.6653550410838 446.481893957815 1520.954717688208 444.63423684033773Q1520.2156548412167 442.8150052169755 1520.2156548412167 441.7916874288343L1520.2156548412167 441.7916874288343Q1520.2156548412167 438.72173406441055 1523.0866297468356 437.47101232334904L1523.0866297468356 437.47101232334904Q1549.095956862092 435.8507591587921 1551.1425924383743 434.82744137065083L1551.1425924383743 434.82744137065083Q1552.3648886853207 427.46523839485695 1552.3648886853207 423.57094570109723ZM1743.099954197202 516.4938859631447L1743.099954197202 516.4938859631447Q1743.099954197202 521.1840924921255 1724.2822770930488 521.1840924921255L1724.2822770930488 521.1840924921255Q1714.248077670442 521.1840924921255 1711.4908047412837 520.5871571157097Q1708.7335318121254 519.9617962451789 1705.0382175771706 518.9384784570377Q1701.3429033422162 517.9151606688965 1697.9886950366422 514.1345699515969Q1694.606061236953 510.3539792342973 1692.0477667666 505.52164523474147Q1689.489472296247 500.71773672930067 1687.4428367199644 495.4021693297892L1687.4428367199644 495.4021693297892Q1685.1972226848766 490.285580389083 1682.7242046968686 485.79435231890756L1682.7242046968686 485.79435231890756Q1677.0106803797469 475.76015289630044 1669.222094992227 475.5611744374952L1669.222094992227 475.5611744374952Q1665.7541847101932 475.5611744374952 1664.9298453808572 475.9591313551056L1664.9298453808572 475.9591313551056L1662.257848934044 478.4037238489986Q1661.8598920164334 481.7010811663426 1661.6609135576282 483.7477167426251Q1661.4335096047078 485.79435231890756 1661.2345311459026 487.61358394226977Q1661.0355526870976 489.461241059747 1661.0355526870976 490.285580389083Q1661.0355526870976 491.109919718419 1661.2345311459026 493.9808946240375L1661.2345311459026 493.9808946240375Q1661.6609135576282 496.6244655767357 1661.6609135576282 499.6944189411594L1661.6609135576282 499.6944189411594Q1661.8598920164334 506.85764345814806 1662.257848934044 509.33066144615606L1662.257848934044 509.33066144615606Q1662.8832098045748 511.37729702243854 1665.3278022984678 511.775253940049L1665.3278022984678 511.775253940049L1670.643369697979 512.599593269385Q1673.5143446035977 512.9975501869956 1675.7599586386852 514.2198464339419Q1678.033998167888 515.4705681750036 1678.033998167888 518.7394999982325L1678.033998167888 518.7394999982325Q1678.033998167888 522.0084318214615 1675.3620017210746 522.0084318214615L1675.3620017210746 522.0084318214615Q1673.7133230624027 522.0084318214615 1670.0464343215633 522.2074102802667Q1666.351120086609 522.4063887390719 1661.6609135576282 522.6337926919921Q1656.9422815345324 522.8327711507975 1651.8256925938263 523.0317496096027L1651.8256925938263 523.0317496096027L1641.592514712414 523.8560889389387Q1636.8738826893182 524.0550673977439 1633.2069939484786 524.254045856549Q1629.5116797135242 524.4530243153545 1627.664022596047 524.6804282682747L1627.664022596047 524.6804282682747Q1621.126158949589 524.6804282682747 1621.126158949589 519.5638393275685L1621.126158949589 519.5638393275685Q1621.126158949589 516.8918428807552 1622.7748376082611 515.3568661985435Q1624.395090772818 513.8218895163316 1626.3564498667554 512.2869128341197Q1628.2893834665779 510.7519361519078 1629.9380621252499 508.7053005756253Q1631.5583152898066 506.6586649993429 1631.5583152898066 502.7643723055831L1631.5583152898066 502.7643723055831Q1634.429290195425 482.0990380839531 1634.429290195425 473.28713490829244L1634.429290195425 473.28713490829244L1634.429290195425 457.3404327097581Q1634.429290195425 433.17876271197883 1631.5583152898066 414.36108560782606L1631.5583152898066 414.36108560782606Q1630.5349975016657 408.8181142553944 1625.6173870197647 408.0222004201734L1625.6173870197647 408.0222004201734Q1623.570751443482 407.5958180084479 1621.3251374083943 407.08415911437726Q1619.0795233733065 406.5725002203066 1617.4308447146348 404.32688618521894L1617.4308447146348 404.32688618521894L1617.2318662558296 403.50254685588294Q1617.2318662558296 400.63157195026446 1619.9038627026425 399.21029724451273Q1622.5474336553407 397.789022538761 1625.219430102154 397.789022538761L1625.219430102154 397.789022538761L1626.4417263491005 397.98800099756625Q1629.5116797135242 396.76570475061976 1637.3002651010438 393.2693689744705L1637.3002651010438 393.2693689744705L1648.954717688208 387.7548231161539Q1653.0479888407726 385.9071659986766 1654.2702850877192 385.395507104606Q1655.5210068287806 384.8838482105354 1656.7433030757272 383.8605304223941L1656.7433030757272 383.8605304223941L1659.1878955696202 381.41593792850114Q1662.6842313457694 378.5449630228827 1665.1288238396623 378.5449630228827L1665.1288238396623 378.5449630228827Q1668.824138074617 378.5449630228827 1668.824138074617 384.05950888119935Q1668.824138074617 389.60248023363107 1667.3744378747501 392.6724335980548L1667.3744378747501 392.6724335980548Q1665.9531631689983 409.2444966671199 1665.3278022984678 430.9331486768911Q1664.730866922052 452.6218006866624 1664.730866922052 453.4461400159984L1664.730866922052 453.4461400159984L1664.730866922052 455.8907325098914L1664.9298453808572 462.4570216504643L1664.9298453808572 464.5036572267468Q1685.7941580612924 452.4228222278571 1700.9449464246059 437.6984162762693L1700.9449464246059 437.6984162762693Q1698.0739715189875 437.2720338645438 1695.1177201310238 436.3624180528627Q1692.133043248945 435.42437674706656 1692.133043248945 431.7574880062271L1692.133043248945 431.7574880062271Q1692.133043248945 426.21451665379544 1704.2138782478346 426.21451665379544L1704.2138782478346 426.21451665379544Q1726.9258480457474 426.21451665379544 1726.9258480457474 433.6051451237044L1726.9258480457474 433.6051451237044Q1726.9258480457474 438.9207125232158 1713.622716799911 438.9207125232158L1713.622716799911 438.9207125232158L1687.8407936375747 459.18808982723533Q1698.5003539307127 464.90161414435727 1710.7801673884078 482.49699500156356L1710.7801673884078 482.49699500156356L1719.7626235287585 495.8001262473997Q1724.0832986342439 502.1674369291674 1726.6415931045967 504.6120294230604Q1729.19988757495 507.0566219169533 1731.7581820453029 507.99466322274947Q1734.3164765156562 508.90427903443054 1736.8747709860095 510.04129879903195Q1739.4330654563623 511.14989306951827 1741.2522970797245 512.599593269385Q1743.099954197202 514.0208679751368 1743.099954197202 516.4938859631447ZM1810.4399497557183 455.0948186746704L1810.4399497557183 455.0948186746704Q1810.4399497557183 438.9207125232158 1796.1135007217408 438.9207125232158L1796.1135007217408 438.9207125232158Q1789.9735939928937 438.9207125232158 1787.5290014990005 443.6109190521965L1787.5290014990005 443.6109190521965Q1786.278279757939 446.28291549900973 1786.193003275594 449.46657083989356Q1786.079301299134 452.6218006866624 1787.01734260493 453.4461400159984Q1787.926958416611 454.2704793453344 1787.926958416611 456.3171149216169L1787.926958416611 456.3171149216169Q1787.926958416611 459.9840036624563 1783.6347088052407 461.2347254035178L1783.6347088052407 461.2347254035178Q1780.9627123584278 462.0306392387388 1775.8461234177212 462.0306392387388L1775.8461234177212 462.0306392387388Q1772.179234676882 462.0306392387388 1766.6362633244503 463.878296356216Q1761.1217174661333 465.72595347369327 1760.2973781367978 465.72595347369327L1760.2973781367978 465.72595347369327Q1758.4497210193204 465.72595347369327 1757.5401052076395 463.48033943860554Q1756.602063901843 461.2347254035178 1756.602063901843 459.18808982723533L1756.602063901843 459.18808982723533Q1756.602063901843 455.4927755922809 1761.4343979013988 447.6189137224163Q1766.23830640684 439.7450518525518 1769.706216688874 437.07305540573856L1769.706216688874 437.07305540573856Q1776.0451018765266 432.35442338264284 1781.3890947701534 429.3981719946793Q1786.7046621696645 426.4419206067157 1792.4181864867865 426.4419206067157L1792.4181864867865 426.4419206067157Q1821.8954238840774 426.4419206067157 1830.5083486009325 442.18964434644477L1830.5083486009325 442.18964434644477Q1835.3975335887185 451.2005259809107 1835.3975335887185 463.878296356216L1835.3975335887185 463.878296356216Q1835.3975335887185 469.42126770864775 1833.9762588829672 475.1347920257697Q1832.554984177215 480.8767418370066 1832.554984177215 486.19230923651804L1832.554984177215 486.19230923651804Q1832.554984177215 494.77680845925846 1836.0228944592495 502.1674369291674L1836.0228944592495 502.1674369291674Q1840.5141225294246 508.50632211682006 1843.8114798467686 509.5296399049613L1843.8114798467686 509.5296399049613Q1845.033776093715 509.5296399049613 1846.1423703642017 508.7053005756253Q1847.2793901288028 507.8809612462893 1848.3027079169442 507.8809612462893L1848.3027079169442 507.8809612462893Q1852.5949575283144 507.8809612462893 1852.5949575283144 512.0879343753145Q1852.5949575283144 516.2664820102245 1848.9280687874748 519.3364353746481L1848.9280687874748 519.3364353746481Q1841.537440317566 525.4763421034957 1834.8005982123027 525.4763421034957Q1828.0353306129246 525.4763421034957 1825.1643557073062 524.6804282682747Q1822.3218062958026 523.8560889389387 1820.0477667666 522.4063887390719Q1817.8021527315123 520.9851140333201 1816.181899566955 519.3364353746481L1816.181899566955 519.3364353746481L1812.8845422496115 516.2664820102245L1809.8145888851877 513.1965286458008Q1808.5922926382414 511.775253940049 1808.393314179436 511.775253940049L1808.393314179436 511.775253940049Q1794.4648220630688 528.5462954679194 1773.202552465023 528.5462954679194L1773.202552465023 528.5462954679194Q1761.1217174661333 528.5462954679194 1753.4468340550743 520.1607747039841Q1745.7719506440149 511.775253940049 1745.7719506440149 504.4130509642551L1745.7719506440149 504.4130509642551Q1745.7719506440149 490.48455884788825 1759.6720172662667 481.9000596251479L1759.6720172662667 481.9000596251479Q1773.9984663002442 473.28713490829244 1803.0777467799244 469.1938637557275L1803.0777467799244 469.1938637557275Q1805.9487216855428 468.99488529692223 1807.5689748501 467.77258904997575L1807.5689748501 467.77258904997575Q1810.4399497557183 465.72595347369327 1810.4399497557183 455.0948186746704ZM1781.9860301465687 487.61358394226977L1781.9860301465687 487.61358394226977Q1779.740416111481 491.30889817722425 1779.740416111481 494.5778300004532L1779.740416111481 494.5778300004532Q1779.740416111481 502.3664153879726 1781.1616908172327 508.90427903443054Q1782.6113910170998 515.4705681750036 1786.079301299134 515.8685250926139L1786.079301299134 515.8685250926139Q1791.19589023984 515.8685250926139 1794.8912044747944 512.9975501869956L1794.8912044747944 512.9975501869956Q1801.4290681212524 507.8809612462893 1801.855450532978 502.7643723055831L1801.855450532978 502.7643723055831L1804.3000430268708 477.1814276020521Q1788.3249153342217 477.1814276020521 1781.9860301465687 487.61358394226977Z " fill="white" transform="matrix(0.4723107804935648,0,0,0.4723107804935648,0,85.78574116078836)"/></g></svg>